<mxfile host="Electron" modified="2023-08-10T02:59:46.749Z" agent="Mozilla/5.0 (Windows NT 10.0; Win64; x64) AppleWebKit/537.36 (KHTML, like Gecko) draw.io/21.6.5 Chrome/114.0.5735.243 Electron/25.3.1 Safari/537.36" etag="1BCoacWMpwKBMlfqrXZ9" version="21.6.5" type="device">
  <diagram name="第 1 页" id="UdORBZQHHSoJqANZYs1T">
    <mxGraphModel dx="1863" dy="614" grid="1" gridSize="10" guides="1" tooltips="1" connect="1" arrows="1" fold="1" page="1" pageScale="1" pageWidth="827" pageHeight="1169" math="0" shadow="0">
      <root>
        <mxCell id="0" />
        <mxCell id="1" parent="0" />
        <mxCell id="jT1-dBwznfdhucrr99Hs-4" style="edgeStyle=orthogonalEdgeStyle;rounded=0;sketch=1;hachureGap=4;jiggle=2;curveFitting=1;orthogonalLoop=1;jettySize=auto;html=1;exitX=1;exitY=0.5;exitDx=0;exitDy=0;entryX=0;entryY=0.5;entryDx=0;entryDy=0;fontFamily=Architects Daughter;fontSource=https%3A%2F%2Ffonts.googleapis.com%2Fcss%3Ffamily%3DArchitects%2BDaughter;fontSize=16;" parent="1" source="jT1-dBwznfdhucrr99Hs-1" target="jT1-dBwznfdhucrr99Hs-3" edge="1">
          <mxGeometry relative="1" as="geometry" />
        </mxCell>
        <mxCell id="jT1-dBwznfdhucrr99Hs-6" style="edgeStyle=orthogonalEdgeStyle;rounded=0;sketch=1;hachureGap=4;jiggle=2;curveFitting=1;orthogonalLoop=1;jettySize=auto;html=1;exitX=1;exitY=0.5;exitDx=0;exitDy=0;entryX=0;entryY=0.5;entryDx=0;entryDy=0;fontFamily=Architects Daughter;fontSource=https%3A%2F%2Ffonts.googleapis.com%2Fcss%3Ffamily%3DArchitects%2BDaughter;fontSize=16;" parent="1" source="jT1-dBwznfdhucrr99Hs-1" target="jT1-dBwznfdhucrr99Hs-5" edge="1">
          <mxGeometry relative="1" as="geometry" />
        </mxCell>
        <mxCell id="TlJE69d-yF3p0b26EstV-2" style="edgeStyle=orthogonalEdgeStyle;rounded=0;sketch=1;hachureGap=4;jiggle=2;curveFitting=1;orthogonalLoop=1;jettySize=auto;html=1;entryX=0.517;entryY=-0.008;entryDx=0;entryDy=0;entryPerimeter=0;fontFamily=Architects Daughter;fontSource=https%3A%2F%2Ffonts.googleapis.com%2Fcss%3Ffamily%3DArchitects%2BDaughter;fontSize=16;" edge="1" parent="1" source="jT1-dBwznfdhucrr99Hs-1" target="TlJE69d-yF3p0b26EstV-1">
          <mxGeometry relative="1" as="geometry" />
        </mxCell>
        <mxCell id="jT1-dBwznfdhucrr99Hs-1" value="HierarchicalBeanFactory" style="rounded=1;whiteSpace=wrap;html=1;sketch=1;hachureGap=4;jiggle=2;curveFitting=1;fontFamily=Architects Daughter;fontSource=https%3A%2F%2Ffonts.googleapis.com%2Fcss%3Ffamily%3DArchitects%2BDaughter;fontSize=20;fillColor=#dae8fc;strokeColor=#6c8ebf;" parent="1" vertex="1">
          <mxGeometry x="-130" y="320" width="300" height="70" as="geometry" />
        </mxCell>
        <mxCell id="jT1-dBwznfdhucrr99Hs-2" value="分层bean,父子结构" style="text;html=1;strokeColor=none;fillColor=none;align=center;verticalAlign=middle;whiteSpace=wrap;rounded=0;fontSize=20;fontFamily=Architects Daughter;" parent="1" vertex="1">
          <mxGeometry x="-100" y="270" width="200" height="30" as="geometry" />
        </mxCell>
        <mxCell id="jT1-dBwznfdhucrr99Hs-17" value="" style="edgeStyle=orthogonalEdgeStyle;rounded=0;sketch=1;hachureGap=4;jiggle=2;curveFitting=1;orthogonalLoop=1;jettySize=auto;html=1;fontFamily=Architects Daughter;fontSource=https%3A%2F%2Ffonts.googleapis.com%2Fcss%3Ffamily%3DArchitects%2BDaughter;fontSize=16;" parent="1" source="jT1-dBwznfdhucrr99Hs-3" target="jT1-dBwznfdhucrr99Hs-16" edge="1">
          <mxGeometry relative="1" as="geometry" />
        </mxCell>
        <mxCell id="jT1-dBwznfdhucrr99Hs-3" value="ConfigurableBeanFactory" style="rounded=1;whiteSpace=wrap;html=1;sketch=1;hachureGap=4;jiggle=2;curveFitting=1;fontFamily=Architects Daughter;fontSource=https%3A%2F%2Ffonts.googleapis.com%2Fcss%3Ffamily%3DArchitects%2BDaughter;fontSize=20;fillColor=#d5e8d4;strokeColor=#82b366;" parent="1" vertex="1">
          <mxGeometry x="440" y="150" width="280" height="70" as="geometry" />
        </mxCell>
        <mxCell id="jT1-dBwznfdhucrr99Hs-19" value="" style="edgeStyle=orthogonalEdgeStyle;rounded=0;sketch=1;hachureGap=4;jiggle=2;curveFitting=1;orthogonalLoop=1;jettySize=auto;html=1;fontFamily=Architects Daughter;fontSource=https%3A%2F%2Ffonts.googleapis.com%2Fcss%3Ffamily%3DArchitects%2BDaughter;fontSize=16;" parent="1" source="jT1-dBwznfdhucrr99Hs-5" target="jT1-dBwznfdhucrr99Hs-18" edge="1">
          <mxGeometry relative="1" as="geometry" />
        </mxCell>
        <mxCell id="jT1-dBwznfdhucrr99Hs-5" value="ApplicationContext" style="rounded=1;whiteSpace=wrap;html=1;sketch=1;hachureGap=4;jiggle=2;curveFitting=1;fontFamily=Architects Daughter;fontSource=https%3A%2F%2Ffonts.googleapis.com%2Fcss%3Ffamily%3DArchitects%2BDaughter;fontSize=20;fillColor=#f8cecc;strokeColor=#b85450;" parent="1" vertex="1">
          <mxGeometry x="440" y="470" width="280" height="70" as="geometry" />
        </mxCell>
        <mxCell id="jT1-dBwznfdhucrr99Hs-7" value="&lt;span style=&quot;font-family: -apple-system, &amp;quot;SF UI Text&amp;quot;, Arial, &amp;quot;PingFang SC&amp;quot;, &amp;quot;Hiragino Sans GB&amp;quot;, &amp;quot;Microsoft YaHei&amp;quot;, &amp;quot;WenQuanYi Micro Hei&amp;quot;, sans-serif; font-size: 16px; font-style: normal; font-variant-ligatures: no-common-ligatures; font-variant-caps: normal; font-weight: 400; letter-spacing: normal; orphans: 2; text-align: start; text-indent: 0px; text-transform: none; widows: 2; word-spacing: 0px; -webkit-text-stroke-width: 0px; background-color: rgb(255, 255, 255); text-decoration-thickness: initial; text-decoration-style: initial; text-decoration-color: initial; float: none; display: inline !important;&quot;&gt;&lt;font color=&quot;#cc0000&quot;&gt;ConfigurableBeanFactory定义BeanFactory的配置&lt;/font&gt;&lt;/span&gt;" style="text;whiteSpace=wrap;html=1;fontSize=20;fontFamily=Architects Daughter;" parent="1" vertex="1">
          <mxGeometry x="380" y="90" width="400" height="30" as="geometry" />
        </mxCell>
        <mxCell id="jT1-dBwznfdhucrr99Hs-8" value="&lt;span style=&quot;color: rgb(192, 0, 0); font-family: 楷体; font-size: large; font-style: normal; font-variant-ligatures: no-common-ligatures; font-variant-caps: normal; font-weight: 400; letter-spacing: normal; orphans: 2; text-align: start; text-indent: 0px; text-transform: none; widows: 2; word-spacing: 0px; -webkit-text-stroke-width: 0px; background-color: rgb(255, 255, 255); text-decoration-thickness: initial; text-decoration-style: initial; text-decoration-color: initial; float: none; display: inline !important;&quot;&gt;ApplicationContext因此也称之为Spring上下文。Spring容器负责管理Bean与Bean之间的依赖关系。&lt;/span&gt;" style="text;whiteSpace=wrap;html=1;fontSize=20;fontFamily=Architects Daughter;" parent="1" vertex="1">
          <mxGeometry x="390" y="570" width="403" height="50" as="geometry" />
        </mxCell>
        <mxCell id="jT1-dBwznfdhucrr99Hs-16" value="类加载器，类型转换，属性编辑器，BeanPostProcessor，作用域，bean定义，bean依赖关系，销毁方法等等属性" style="whiteSpace=wrap;html=1;fontSize=20;fontFamily=Architects Daughter;fillColor=#d5e8d4;strokeColor=#82b366;rounded=1;sketch=1;hachureGap=4;jiggle=2;curveFitting=1;fontSource=https%3A%2F%2Ffonts.googleapis.com%2Fcss%3Ffamily%3DArchitects%2BDaughter;" parent="1" vertex="1">
          <mxGeometry x="820" y="117.5" width="293" height="135" as="geometry" />
        </mxCell>
        <mxCell id="jT1-dBwznfdhucrr99Hs-18" value="&lt;i style=&quot;color: rgb(18, 18, 18); font-family: -apple-system, BlinkMacSystemFont, &amp;quot;Helvetica Neue&amp;quot;, &amp;quot;PingFang SC&amp;quot;, &amp;quot;Microsoft YaHei&amp;quot;, &amp;quot;Source Han Sans SC&amp;quot;, &amp;quot;Noto Sans CJK SC&amp;quot;, &amp;quot;WenQuanYi Micro Hei&amp;quot;, sans-serif; font-size: medium; text-align: start; background-color: rgb(255, 255, 255);&quot;&gt;ApplicationContext&lt;/i&gt;&amp;nbsp;类继承结构可以看出，它扩展了分层Bean工厂、可罗列Bean工厂、国际化信息、应用事件发布、资源加载、资源模式解析、能够处理环境等功能" style="whiteSpace=wrap;html=1;fontSize=20;fontFamily=Architects Daughter;fillColor=#f8cecc;strokeColor=#b85450;rounded=1;sketch=1;hachureGap=4;jiggle=2;curveFitting=1;fontSource=https%3A%2F%2Ffonts.googleapis.com%2Fcss%3Ffamily%3DArchitects%2BDaughter;" parent="1" vertex="1">
          <mxGeometry x="820" y="440" width="300" height="130" as="geometry" />
        </mxCell>
        <mxCell id="TlJE69d-yF3p0b26EstV-1" value="&lt;span style=&quot;color: rgb(209, 213, 219); font-family: Söhne, ui-sans-serif, system-ui, -apple-system, &amp;quot;Segoe UI&amp;quot;, Roboto, Ubuntu, Cantarell, &amp;quot;Noto Sans&amp;quot;, sans-serif, &amp;quot;Helvetica Neue&amp;quot;, Arial, &amp;quot;Apple Color Emoji&amp;quot;, &amp;quot;Segoe UI Emoji&amp;quot;, &amp;quot;Segoe UI Symbol&amp;quot;, &amp;quot;Noto Color Emoji&amp;quot;; font-size: 16px; font-style: normal; font-variant-ligatures: normal; font-variant-caps: normal; font-weight: 400; letter-spacing: normal; orphans: 2; text-align: start; text-indent: 0px; text-transform: none; widows: 2; word-spacing: 0px; -webkit-text-stroke-width: 0px; background-color: rgb(68, 70, 84); text-decoration-thickness: initial; text-decoration-style: initial; text-decoration-color: initial; float: none; display: inline !important;&quot;&gt;在 Spring 中，Bean 工厂用于管理和创建对象（即 Spring Bean）。层次性的 Bean 工厂可以理解为一个树形结构，其中包含父子关系，父工厂可以包含一些通用的配置和 Bean 定义，子工厂可以继承父工厂的配置并添加一些特定的配置和 Bean 定义。&lt;/span&gt;" style="text;whiteSpace=wrap;html=1;fontSize=20;fontFamily=Architects Daughter;" vertex="1" parent="1">
          <mxGeometry x="-270" y="480" width="560" height="120" as="geometry" />
        </mxCell>
      </root>
    </mxGraphModel>
  </diagram>
</mxfile>
